<svg width="12" height="20" viewBox="0 0 12 20" fill="none" xmlns="http://www.w3.org/2000/svg">
<path d="M2.33696 19.236L2.33686 19.236C1.98505 19.588 1.41489 19.5879 1.06346 19.2361L1.06329 19.236C0.711724 18.8844 0.711743 18.3141 1.06328 17.9626L0.709982 17.6093L1.06329 17.9626L8.67269 10.3534L9.02626 9.99986L8.67269 9.6463L1.06358 2.03747C1.06356 2.03744 1.06353 2.03742 1.06351 2.03739C0.711889 1.68555 0.712018 1.11533 1.06351 0.763836L1.06358 0.763765C1.41509 0.412118 1.98535 0.412015 2.33717 0.763836L2.33717 0.763839L10.9368 9.3633C10.9368 9.36333 10.9368 9.36336 10.9369 9.36339C11.1128 9.5394 11.2004 9.7687 11.2004 9.99981C11.2004 10.2311 11.1125 10.4607 10.9366 10.6366L2.33696 19.236Z" fill="#1890FF" stroke="#1890FF"/>
</svg>
